<?xml version="1.0" encoding="UTF-8" standalone="no"?>
<svg
   viewBox="0 0 16 16"
   fill="none"
   x="0px"
   y="0px"
   version="1.1"
   id="svg2203"
   sodipodi:docname="action_icon.svg"
   width="16"
   height="16"
   inkscape:version="1.1.2 (0a00cf5339, 2022-02-04)"
   xmlns:inkscape="http://www.inkscape.org/namespaces/inkscape"
   xmlns:sodipodi="http://sodipodi.sourceforge.net/DTD/sodipodi-0.dtd"
   xmlns="http://www.w3.org/2000/svg"
   xmlns:svg="http://www.w3.org/2000/svg">
  <defs
     id="defs2207" />
  <sodipodi:namedview
     id="namedview2205"
     pagecolor="#000000"
     bordercolor="#666666"
     borderopacity="1.0"
     inkscape:pageshadow="2"
     inkscape:pageopacity="0"
     inkscape:pagecheckerboard="true"
     showgrid="false"
     inkscape:zoom="19.657569"
     inkscape:cx="7.6306487"
     inkscape:cy="10.988134"
     inkscape:window-width="1920"
     inkscape:window-height="1043"
     inkscape:window-x="0"
     inkscape:window-y="0"
     inkscape:window-maximized="1"
     inkscape:current-layer="svg2203" />
  <path
     fill-rule="evenodd"
     clip-rule="evenodd"
     d="m 13.559624,2.4403687 c 0.367529,0.3675579 0.367529,0.9634736 0,1.3310315 l -1.597176,1.5972246 c -0.367624,0.3675579 -0.963482,0.3675579 -1.331106,0 -0.367529,-0.3675485 -0.367529,-0.9634736 0,-1.3310221 l 1.59727,-1.597234 c 0.36753,-0.3675485 0.963483,-0.3675485 1.331012,0 z"
     fill="#000000"
     id="path2187"
     style="stroke-width:0.941176;fill:#e0e0e0;fill-opacity:1" />
  <path
     fill-rule="evenodd"
     clip-rule="evenodd"
     d="m 13.559624,14.50081 c -0.367529,0.367529 -0.963482,0.367529 -1.331012,0 l -1.59727,-1.597178 c -0.367529,-0.367624 -0.367529,-0.963483 0,-1.331107 0.367624,-0.367529 0.963482,-0.367529 1.331106,0 l 1.597176,1.597272 c 0.367529,0.36753 0.367529,0.963483 0,1.331013 z"
     fill="#000000"
     id="path2189"
     style="stroke-width:0.941176;fill:#e0e0e0;fill-opacity:1" />
  <path
     fill-rule="evenodd"
     clip-rule="evenodd"
     d="M 16,8.4705939 C 16,8.990406 15.578635,9.411771 15.058824,9.411771 h -2.258823 c -0.519812,0 -0.941177,-0.421365 -0.941177,-0.9411771 0,-0.5198121 0.421365,-0.9411771 0.941177,-0.9411771 h 2.258823 C 15.578635,7.5294168 16,7.9507818 16,8.4705939 Z"
     fill="#000000"
     id="path2191"
     style="stroke-width:0.941176;fill:#e0e0e0;fill-opacity:1" />
  <path
     fill-rule="evenodd"
     clip-rule="evenodd"
     d="M 7.5294134,0 C 8.049225,0 8.4705897,0.42138381 8.4705897,0.9411771 v 2.258825 c 0,0.5197933 -0.4213647,0.9411771 -0.9411763,0.9411771 -0.5198117,0 -0.9411764,-0.4213838 -0.9411764,-0.9411771 V 0.9411771 C 6.588237,0.42138381 7.0096017,0 7.5294134,0 Z"
     fill="#000000"
     id="path2193"
     style="stroke-width:0.941176;fill:#e0e0e0;fill-opacity:1" />
  <path
     fill-rule="evenodd"
     clip-rule="evenodd"
     d="m 1.4991932,2.4403687 c 0.3675576,-0.3675485 0.9634728,-0.3675485 1.3310304,0 l 1.5972232,1.597234 c 0.3675576,0.3675485 0.3675576,0.9634736 0,1.3310221 -0.3675481,0.3675579 -0.9634727,0.3675579 -1.3310209,0 L 1.4991932,3.7714002 c -0.3675481,-0.3675579 -0.3675481,-0.9634736 0,-1.3310315 z"
     fill="#000000"
     id="path2195"
     style="stroke-width:0.941176;fill:#e0e0e0;fill-opacity:1" />
  <path
     fill-rule="evenodd"
     clip-rule="evenodd"
     d="M 8.9488013,7.0530871 C 9.2056484,7.3106872 9.2911072,7.6932757 9.1681895,8.035676 l -2.6352936,7.341181 c -0.1364706,0.380142 -0.5002352,0.630777 -0.9040752,0.622965 -0.4038211,-0.0078 -0.7576186,-0.272376 -0.8792469,-0.6576 L 3.7664681,12.229091 0.65240755,11.225231 C 0.26851114,11.101466 0.00614884,10.746831 1.0648072e-4,10.343536 -0.00593587,9.9402419 0.24568762,9.5778888 0.62570637,9.4426416 L 7.9668721,6.8308752 C 8.3096485,6.7089927 8.6919543,6.7954869 8.9488013,7.0530871 Z m -5.0763002,3.2323789 0.9339198,0.301082 c 0.2900894,0.09355 0.5169317,0.321789 0.6087152,0.612424 l 0.289054,0.915201 1.0207057,-2.8434844 z"
     fill="#000000"
     id="path2197"
     style="stroke-width:0.941176;fill:#e0e0e0;fill-opacity:1" />
</svg>
