<svg fill="none" height="16" viewBox="0 0 16 16" width="16" xmlns="http://www.w3.org/2000/svg"><g clip-rule="evenodd" fill="#e0e0e0" fill-rule="evenodd"><path d="m8.294113 2.69167c.3905006-.39052 1.0237016-.39052 1.4142022 0l4.6025068 4.60243c.390501.3905.390501 1.0237 0 1.4142l-4.6025068 4.6025c-.3905006.3905-1.0237016.3905-1.4142022 0l-4.6024372-4.6025c-.3905206-.3905-.3905206-1.0237 0-1.4142zm.7071011 2.12132-3.188215 3.18821 3.188215 3.1882 3.1882049-3.1882z"/><path d="m0 8c0-.5523.4477207-1 1.0000016-1h3.8000059c.5522909 0 1.0000016.4477 1.0000016 1s-.4477107 1-1.0000016 1h-3.8000059c-.5522809 0-1.0000016-.4477-1.0000016-1z"/><path d="m15.707125 1.29289c.3905.39053.3905 1.02369 0 1.41422l-3.200005 3.2c-.390501.39049-1.023702.39049-1.414203 0-.3905-.39053-.3905-1.02369 0-1.41422l3.200005-3.2c.390501-.39052 1.023702-.39052 1.414203 0z"/><path d="m11.092917 10.0929c.390501-.3905 1.023702-.3905 1.414203 0l3.200005 3.2c.3905.3905.3905 1.0237 0 1.4142-.390501.3905-1.023702.3905-1.414203 0l-3.200005-3.2c-.3905-.3905-.3905-1.0237 0-1.4142z"/></g></svg>