<svg height="16" viewBox="0 0 16 16" width="16" xmlns="http://www.w3.org/2000/svg"><path d="m15.969658 5.8764653a3.7416125 3.8376348 0 0 0 -.290861-1.0044475 2.2643347 2.3224451 0 0 0 -.69941-.891352c-2.115546-1.6351725-4.74708-3.02059236-6.16145-3.71620219a2.6188107 2.6860181 0 0 0 -2.4838058.12034522c-2.5703928 1.58841177-3.8486976 5.54675437-4.3417125 7.51323857a.68704021.70467195 0 0 0 .2120494.7046719c.9627045.8699654 2.4845127 2.1107537 4.6816985 3.5454717a1.4391089 1.4760413 0 0 1 .6644216 1.341196 1.3129395 1.3466339 0 0 0 .1183942.646675c.067502.122157.3198413.477031.8531456.203354a.35094184.35994817 0 0 1 .4866535.198642.35836357.36756037 0 0 1 -.184483.450932 1.5051977 1.5438261 0 0 1 -.6661887.171093c-.5463807 0-.9453871-.362485-1.1143198-.697422-.00283-.0051-.0053-.01051-.00778-.01595a2.0144698 2.0661678 0 0 1 -.1855432-1.004447.7382855.75723236 0 0 0 -.3406928-.688722c-2.8626676-1.867889-4.586983-3.3972151-5.4602734-4.2584809a.54037268.55424044 0 0 0 -.87258343.1845052 2.1788081 2.2347236 0 0 0 -.08375953.2454027c-.22972023.8163175-.0247391 1.69462.50609135 2.346732 2.04981131 2.518912 5.07257621 4.000028 6.30104941 4.528894a2.3678855 2.4286533 0 0 0 2.5887703-.486455 2.2858931 2.3445567 0 0 0 .6820923-1.63336 31.038385 31.834933 0 0 1 .379215-4.1323358c.267889-1.720719.9984-2.9056844 1.493888-3.4327384.359424-.4462197.858447-.7249711 1.389631-.7282335h.01237c.426926 0 .764791.1326697 1.004054.3943843.361191.3947468.336805.918176.332917.9765361a.35094184.35994817 0 0 1 -.700116-.0467606c0-.011237.0085-.2744016-.147375-.4407825-.102844-.1087456-.270716-.1652934-.497962-.1638434a.53012362.54372836 0 0 0 -.21205.052198c-.509979.2327157-.636148.9109262-.282732 1.3549711a2.0473374 2.0998789 0 0 0 .613883.5140045c.702237.3922094 1.590371.2026294 2.049811-.4686938.01484-.021749.02933-.043861.04312-.065972a2.2576198 2.3155578 0 0 0 .319841-1.6170487zm-9.8210701 2.814338c-.1191011.4476697-.5004367.7311334-.8520854.6328998-.3516486-.0982335-.5400192-.5408284-.4212716-.9884981.1187477-.4476697.5004367-.7311334.8520854-.6328998s.5396659.540466.4212716.9884981zm3.1757939-4.9540903-2.1530087 2.8998846a.65629304.67313571 0 0 1 -1.15779-.5752646c.1805954-.7137341.6273129-2.1640389 1.5401858-3.5280722a.58101549.59592628 0 0 1 .7746873-.1750805l.8298202.5045799a.58030866.59520131 0 0 1 .1661054.8739528z" fill="#e0e0e0" stroke-width=".036"/></svg>